<svg xmlns="http://www.w3.org/2000/svg" width="114" height="106"><polygon points="56.9,105.6 0,11.6 113.9,11.6"/><polygon fill="#8B0304" points="56.9,89.9 5.7,0.2 108.2,0.2"/><polygon points="59.9,7.1 48.4,7.1 38.4,19.7 38.4,7.1 29.7,7.1 29.7,39.1 38.4,39.1 38.4,25.1 49.3,39.1 60.9,39.1 47.1,22.2"/><path d="M78.3 26.6c-1 3.2-2.9 4.6-6 4.7-3.7 0-6.4-2.9-6.4-8.1v-.3c.2-5.1 2.7-7.9 6.6-7.9 2.7 0 4.5 1.2 5.9 4.2l.3.6.6-.3 7.9-3.2-.3-.7c-2.5-5.9-7.7-9.2-14.2-9.2-4.6 0-8.7 1.7-11.5 4.7-2.8 3-4.5 7.3-4.5 12.5 0 4.6 1.6 8.7 4.5 11.6 2.9 2.9 6.9 4.5 11.7 4.5h.1c6.7 0 11.9-3.5 13.9-9.7l.2-.6-8.6-3.7-.2.9zM110.3 45h-10.8l-.6 4.9v-4.9h-15.899999999999999v1.6c-.5-.5-1.1-.9-1.8-1.2-1.3-.6-2.7-.8-4.3-.8-1.5 0-2.8.2-4 .8-.5.2-1 .6-1.5.9v-1.3h-7.9v.7l-.2-.7h-7.4v6.6l-1-6.6h-10.9l-.7 5v-.2c-.2-1-.6-1.9-1.3-2.6-.8-.9-1.8-1.4-3-1.7-1.2-.4-3-.5-5.7-.5h-5.8v1.9c-.7-.7-1.5-1.3-2.4-1.6-1.1-.5-2.4-.7-3.7-.7-1.4 0-2.6.2-3.8.7-.3.1-.6.3-.9.5l.3-.8h-16.9v24.4h17.299999999999997l-.2-.6.7.4.6.2c-.8.5-1.5 1.1-2.1 1.8-.7.9-1.1 1.9-1.2 2.9-.2.9-.2 2.1-.3 3.7v6.2c0 2.2.2 3.8.6 5.2.5 1.4 1.5 2.6 2.8 3.3 1.4.8 3 1.1 4.8 1.1 1.8 0 3.4-.4 4.8-1.3.9-.6 1.6-1.3 2.2-2.2.1.2.2.4.4.6.7 1 1.7 1.7 2.9 2.2 1.1.5 2.4.7 3.7.7 1.4 0 2.6-.2 3.8-.7.9-.4 1.6-.9 2.3-1.6v1.9h27.2v-1.8c.4.5.9.9 1.5 1.2 1.4.8 3 1.1 4.8 1.1 1.8 0 3.4-.4 4.8-1.3.8-.5 1.5-1.1 2-1.9.6.9 1.4 1.6 2.4 2.1 1.3.7 2.9 1 4.5 1 1.5 0 2.9-.3 4.2-.9 1.2-.6 2.2-1.4 2.8-2.5.5-1.1.7-2.4.7-4.1 0-2.2-.3-4-1.2-5.4-.5-.8-1.3-1.5-2.3-2.2h3.1v-2.5c0-1.8-.1-3.1-.6-4.3-.5-1-1.3-1.7-2.3-2.2h19.2l-3.7-24.5z"/><g fill="#fff"><path d="M14.8 46.7l-3.1 9.5 3.4 11.5h-5.7l-2.2-9v9h-5.5v-21h5.5v8.2l2.4-8.2h5.2zM27.8 59c0 2.1-.1 3.6-.1 4.5-.1.9-.4 1.7-.9 2.4s-1.2 1.3-2.1 1.7c-.9.4-1.9.6-3.1.6-1.1 0-2.1-.2-3-.6-.9-.4-1.6-.9-2.2-1.7s-.9-1.5-1-2.4c-.1-.9-.2-2.4-.2-4.6v-3.6c0-2.1.1-3.6.1-4.5.1-.9.4-1.7.9-2.4s1.2-1.3 2.1-1.7c.9-.4 1.9-.6 3.1-.6 1.1 0 2.1.2 3 .6.9.4 1.6.9 2.2 1.7.5.7.9 1.5 1 2.4.1.9.2 2.4.2 4.6v3.6zm-5.4-6.9c0-1-.1-1.6-.2-1.9-.1-.3-.3-.4-.7-.4-.3 0-.5.1-.7.3-.2.2-.2.9-.2 2v9.8c0 1.2 0 2 .1 2.3.1.3.3.4.7.4.4 0 .6-.2.7-.5.1-.3.2-1.1.2-2.4v-9.6zM29.2 46.7h4.1c2.6 0 4.4.1 5.4.4.9.2 1.6.6 2.1 1.2s.8 1.2.9 1.9c.1.7.2 2 .2 4v7.4c0 1.9-.1 3.2-.3 3.8-.2.6-.5 1.1-.9 1.5-.4.4-1 .6-1.6.8-.6.1-1.6.2-2.9.2h-6.9v-21.2zm5.5 3.6v13.9c.8 0 1.3-.2 1.5-.5.2-.3.3-1.2.3-2.6v-8.2c0-1 0-1.6-.1-1.8-.1-.3-.2-.5-.4-.6-.3-.2-.7-.2-1.3-.2zM53.4 46.7l3.1 21.1h-5.6l-.3-3.8h-2l-.3 3.8h-5.7l2.8-21.1h8zm-2.9 13.5c-.3-2.4-.6-5.3-.8-8.8-.6 4-.9 7-1.1 8.8h1.9zM69.7 46.7v21.1h-4.8l-2.9-9.6v9.6h-4.6v-21.1h4.6l3.1 9.5v-9.5h4.6zM83 53h-5.1v-1.6c0-.7-.1-1.2-.2-1.4-.1-.2-.3-.3-.7-.3-.3 0-.6.1-.7.4-.2.3-.3.7-.3 1.2 0 .7.1 1.2.3 1.6.2.4.7.8 1.5 1.3 2.4 1.4 4 2.6 4.6 3.6.6.9 1 2.4 1 4.5 0 1.5-.2 2.6-.5 3.3-.3.7-1 1.3-2 1.8s-2.2.7-3.5.7c-1.5 0-2.7-.3-3.8-.8-1-.6-1.7-1.3-2-2.1s-.5-2.1-.5-3.7v-1.4h5.1v2.6c0 .8.1 1.3.2 1.5.1.2.4.3.8.3s.6-.1.8-.4c.2-.3.3-.7.3-1.3 0-1.2-.2-2.1-.5-2.4-.3-.4-1.2-1-2.6-1.9-1.4-.9-2.3-1.6-2.7-2-.4-.4-.8-1-1.1-1.7-.3-.7-.4-1.6-.4-2.8 0-1.6.2-2.8.6-3.5s1.1-1.3 2-1.7c.9-.4 2-.6 3.3-.6 1.4 0 2.6.2 3.6.7 1 .5 1.7 1 2 1.7.3.7.5 1.9.5 3.6v.8zM97.2 46.7v21.1h-5.5v-8.8h-1.6v8.8h-5.5v-21.1h5.5v7.5h1.6v-7.5h5.5zM108.9 46.7l3.1 21.1h-5.6l-.3-3.8h-2l-.3 3.8h-5.7l2.8-21.1h8zm-2.9 13.5c-.3-2.4-.6-5.3-.8-8.8-.6 4-.9 7-1.1 8.8h1.9zM29.5 79.5h-5.5v-3.7c0-1.1-.1-1.7-.2-2-.1-.3-.4-.4-.8-.4-.5 0-.7.2-.9.5-.1.3-.2 1-.2 2.1v9.8c0 1 .1 1.7.2 2 .1.3.4.5.8.5s.7-.2.8-.5.2-1 .2-2.2v-2.6h5.5v.8c0 2.2-.2 3.7-.5 4.6-.3.9-1 1.7-2 2.4-1.1.7-2.4 1-3.9 1-1.6 0-2.9-.3-4-.9-1-.6-1.7-1.4-2.1-2.4-.3-1-.5-2.6-.5-4.6v-6.2c0-1.5.1-2.7.2-3.4.1-.8.4-1.5.9-2.2.5-.7 1.2-1.3 2.1-1.7.9-.4 2-.6 3.2-.6 1.6 0 2.9.3 4 .9 1 .6 1.7 1.4 2.1 2.3.3.9.5 2.4.5 4.3v2.2zM43.4 82.7c0 2.1 0 3.6-.1 4.5-.1.9-.4 1.7-.9 2.4s-1.2 1.3-2.1 1.7c-.9.4-1.9.6-3.1.6-1.1 0-2.1-.2-3-.6-.9-.4-1.6-.9-2.2-1.7s-.9-1.5-1-2.4c-.1-.9-.2-2.4-.2-4.6v-3.6c0-2.1 0-3.6.2-4.5.1-.9.4-1.7.9-2.4s1.2-1.3 2.1-1.7c.9-.4 1.9-.6 3.1-.6 1.1 0 2.1.2 3 .6.9.4 1.6.9 2.2 1.7.5.7.9 1.5 1 2.4s.2 2.4.2 4.6v3.6zm-5.5-6.9c0-1-.1-1.6-.2-1.9-.1-.3-.3-.4-.7-.4-.3 0-.5.1-.7.3-.2.2-.2.9-.2 2v9.8c0 1.2 0 2 .1 2.3.1.3.3.4.7.4.4 0 .6-.2.7-.5.1-.3.2-1.1.2-2.4v-9.6zM61.6 70.3v21.1h-4.8v-14.2l-1.9 14.2h-3.4l-2-13.9v13.9h-4.8v-21.1h7.1c.2 1.3.4 2.8.6 4.5l.8 5.4 1.3-9.8h7.1zM68.6 70.3v21.1h-5.5v-21.1h5.5zM82.9 79.5h-5.5v-3.7c0-1.1-.1-1.7-.2-2-.1-.3-.4-.4-.8-.4-.5 0-.7.2-.9.5-.1.3-.2 1-.2 2.1v9.8c0 1 .1 1.7.2 2 .1.3.4.5.8.5s.7-.2.8-.5c.1-.3.2-1 .2-2.2v-2.6h5.5v.8c0 2.2-.2 3.7-.5 4.6-.3.9-1 1.7-2 2.4-1.1.7-2.4 1-3.9 1-1.6 0-2.9-.3-4-.9-1-.6-1.7-1.4-2.1-2.4-.3-1-.5-2.6-.5-4.6v-6.2c0-1.5.1-2.7.2-3.4.1-.8.4-1.5.9-2.2.5-.7 1.2-1.3 2.1-1.7.9-.4 2-.6 3.2-.6 1.6 0 2.9.3 4 .9 1 .6 1.7 1.4 2.1 2.3.3.9.5 2.4.5 4.3v2.2zM95.8 76.7h-5.1v-1.6c0-.7-.1-1.2-.2-1.4-.1-.2-.3-.3-.7-.3-.3 0-.6.1-.7.4-.2.3-.3.7-.3 1.2 0 .7.1 1.2.3 1.6.2.4.7.8 1.5 1.3 2.4 1.4 4 2.6 4.6 3.6.6.9.9 2.4.9 4.5 0 1.5-.2 2.6-.5 3.3-.4.7-1 1.3-2 1.8s-2.2.7-3.5.7c-1.5 0-2.7-.3-3.8-.8-1-.6-1.7-1.3-2-2.1-.2-.9-.3-2.1-.3-3.7v-1.4h5v2.6c0 .8.1 1.3.2 1.5.1.2.4.3.8.3s.6-.1.8-.4c.2-.3.3-.7.3-1.3 0-1.2-.2-2-.5-2.4-.3-.4-1.2-1-2.6-1.9-1.4-.9-2.3-1.6-2.7-2-.4-.4-.8-1-1.1-1.7-.3-.7-.4-1.6-.4-2.8 0-1.6.2-2.8.6-3.5.4-.7 1.1-1.3 2-1.7.9-.4 2-.6 3.3-.6 1.4 0 2.6.2 3.6.7 1 .5 1.7 1 2 1.7.3.7.5 1.9.5 3.6v.8z"/></g></svg>